<?xml version="1.0" standalone="no"?>
<!DOCTYPE svg PUBLIC "-//W3C//DTD SVG 20010904//EN"
 "http://www.w3.org/TR/2001/REC-SVG-20010904/DTD/svg10.dtd">
<svg version="1.0" xmlns="http://www.w3.org/2000/svg"
 width="512.000000pt" height="512.000000pt" viewBox="0 0 512.000000 512.000000"
 preserveAspectRatio="xMidYMid meet">
<metadata>
Created by potrace 1.14, written by Peter Selinger 2001-2017
</metadata>
<g transform="translate(0.000000,512.000000) scale(0.100000,-0.100000)"
fill="#000000" stroke="none">
<path d="M3840 5088 c-1 -35 -6 -38 -127 -89 -18 -8 -33 -20 -33 -26 0 -9 -19
-13 -61 -13 -87 0 -99 -9 -99 -75 0 -69 -20 -85 -102 -85 l-58 0 0 -47 c0 -43
-4 -51 -40 -80 -29 -25 -48 -33 -79 -33 l-40 0 -3 -51 c-3 -49 -5 -52 -45 -75
-24 -13 -43 -21 -43 -17 0 4 -5 2 -12 -5 -9 -9 -84 -12 -275 -12 l-263 0 0
-23 c0 -15 -9 -26 -27 -34 -27 -12 -62 -32 -110 -63 -13 -8 -23 -19 -23 -25 0
-6 -10 -15 -22 -20 -12 -6 -38 -34 -58 -63 -20 -29 -46 -64 -58 -77 -16 -18
-22 -38 -22 -74 0 -72 -26 -101 -92 -101 -28 0 -73 -7 -102 -16 -97 -31 -113
-34 -153 -34 -70 0 -133 12 -133 25 0 7 -10 13 -22 12 -13 0 -78 3 -145 7
-120 6 -122 6 -148 -18 -15 -14 -41 -28 -58 -31 -89 -18 -107 -26 -107 -46 0
-25 -75 -59 -131 -59 -68 0 -189 -84 -189 -132 l0 -28 -80 0 -80 0 0 -54 c0
-51 -2 -54 -40 -80 -26 -17 -53 -26 -80 -26 -27 0 -40 -4 -40 -13 0 -16 -155
-147 -173 -147 -16 0 -51 -38 -97 -105 -19 -27 -38 -51 -42 -53 -4 -2 -8 -23
-8 -47 0 -55 -27 -115 -52 -115 -22 0 -32 -19 -49 -97 -10 -47 -17 -63 -30
-63 -9 0 -19 -10 -23 -22 -11 -42 -7 -776 4 -780 6 -2 15 -30 20 -63 11 -78
18 -95 40 -95 11 0 20 -10 25 -28 3 -15 20 -55 36 -88 24 -50 29 -75 29 -133
l0 -71 46 0 c38 0 50 -5 68 -27 36 -45 45 -67 46 -109 0 -22 7 -55 16 -73 25
-51 20 -260 -7 -269 -5 -2 -9 -39 -9 -83 l0 -79 -30 0 c-30 0 -38 -12 -88
-132 -6 -16 -18 -28 -27 -28 -12 0 -15 -15 -15 -80 l0 -80 -29 0 c-24 0 -32
-6 -47 -43 -10 -23 -23 -58 -29 -77 -7 -24 -17 -36 -33 -38 -22 -3 -22 -6 -22
-163 l0 -159 52 0 c43 0 57 -5 80 -27 24 -23 28 -35 28 -81 l0 -53 167 4 c189
4 313 22 313 43 0 8 8 14 18 14 9 0 76 3 148 6 112 5 133 4 146 -10 9 -9 24
-16 34 -16 34 0 134 -24 134 -32 0 -4 216 -8 480 -8 l480 0 0 30 c0 26 5 30
43 41 85 23 117 40 117 66 0 22 3 23 80 23 79 0 80 0 80 25 0 27 14 36 113 71
38 13 47 21 47 40 0 23 3 24 79 24 69 0 79 2 84 19 4 15 19 21 78 28 57 6 76
5 82 -4 4 -7 19 -13 32 -13 13 0 36 -5 52 -12 15 -6 62 -14 103 -18 102 -8
130 -27 130 -88 0 -61 16 -71 110 -72 47 0 92 -7 120 -18 83 -32 89 -38 92
-90 l3 -47 318 -3 c270 -2 317 0 317 12 0 8 15 19 33 25 19 7 55 25 80 41 36
22 47 36 47 55 0 24 2 25 68 25 40 0 73 5 80 12 7 7 12 40 12 80 l0 68 50 0
c47 0 52 2 80 42 24 33 30 51 30 93 0 31 8 71 20 96 11 24 20 54 20 66 0 12 5
23 11 25 7 2 14 36 17 81 l5 77 -31 0 c-37 0 -42 12 -42 96 l0 64 -39 0 c-32
0 -45 7 -80 42 -30 31 -41 51 -41 74 0 16 -11 54 -25 82 -14 29 -25 61 -25 71
0 34 -12 51 -35 51 -21 0 -23 5 -29 78 -17 195 -21 339 -15 617 10 449 18 564
40 583 11 9 19 29 19 44 0 15 5 48 12 73 10 37 16 45 35 45 22 0 23 3 23 79 0
74 1 80 22 83 20 3 32 21 88 138 4 8 17 16 29 18 19 3 21 9 21 73 0 39 7 93
16 121 13 39 16 72 11 153 -3 57 -11 113 -16 124 -6 11 -11 54 -11 95 0 57 -3
76 -13 76 -8 0 -35 37 -60 83 -39 68 -47 91 -47 134 0 28 4 54 9 57 5 3 7 15
4 26 -5 18 0 20 51 20 l56 0 0 74 c0 86 0 86 96 86 l64 0 0 113 c0 111 15 192
38 206 7 4 17 34 23 66 15 80 -13 245 -42 252 -17 5 -19 15 -19 84 l0 79 -49
0 c-39 0 -54 6 -79 28 -26 22 -32 36 -34 77 l-3 50 -477 3 -478 2 0 -32z
m-985 -887 c52 -23 88 -70 109 -140 45 -152 -1 -330 -145 -559 -35 -57 -213
-312 -396 -567 l-331 -463 359 -208 359 -207 -2 -679 -3 -679 -101 -34 c-273
-91 -538 -241 -770 -436 l-90 -76 -65 40 c-91 56 -271 142 -359 171 -220 72
-466 77 -666 11 -100 -33 -298 -145 -362 -205 l-22 -21 -45 37 c-25 20 -45 38
-45 40 0 3 196 282 436 622 240 339 437 623 438 631 1 10 -117 80 -317 189
l-317 174 2 620 3 620 94 34 c316 114 588 302 784 543 l28 34 87 -41 c261
-121 469 -181 706 -203 185 -17 306 8 390 81 42 37 56 60 67 108 11 48 -4 87
-70 191 -65 101 -87 168 -77 236 12 74 68 138 137 156 47 11 134 2 184 -20z
m164 -1345 c21 -23 22 -30 23 -236 1 -232 -1 -239 -58 -245 -16 -1 -37 -6 -47
-10 -9 -4 -23 -2 -31 4 -7 6 -16 8 -19 4 -4 -3 -7 1 -7 10 0 13 -10 17 -44 17
-27 0 -48 6 -56 15 -7 9 -15 13 -18 10 -3 -3 -14 2 -24 12 -16 14 -18 33 -18
167 l0 151 38 41 c36 40 66 59 88 55 6 0 17 6 24 14 8 10 31 15 69 15 48 0 61
-4 80 -24z"/>
<path d="M1202 2679 l3 -471 164 -95 c90 -51 168 -92 172 -91 11 4 668 922
663 927 -1 1 -76 -3 -165 -9 -294 -23 -437 3 -682 126 -51 26 -104 55 -119 65
-14 11 -29 19 -32 19 -3 0 -5 -212 -4 -471z"/>
<path d="M1572 1743 c-392 -554 -604 -856 -608 -868 -4 -10 21 -6 103 16 196
54 235 61 343 61 117 -1 222 -19 351 -62 88 -29 274 -110 313 -135 13 -8 26
-12 29 -8 4 3 7 217 7 474 l0 467 -201 111 c-111 61 -205 111 -210 111 -5 0
-62 -75 -127 -167z"/>
</g>
</svg>
